<svg id="agreement" xmlns="http://www.w3.org/2000/svg" width="32.087" height="32" viewBox="0 0 32.087 32">
  <path id="Path_10443" data-name="Path 10443" d="M53.075,64.625,50.443,69.4a2.133,2.133,0,0,1-1.222,1.166,2.1,2.1,0,0,1-2.707-1.26,2.148,2.148,0,0,1-2.35,2.82,2.165,2.165,0,0,1-1.636-1.372A2.111,2.111,0,1,1,38.561,72.2a2.12,2.12,0,0,1-3.986,1.448L33.71,71.28H30V60H47.622Zm0,0" transform="translate(-28.12 -56.24)" fill="#ffbd86"/>
  <path id="Path_10444" data-name="Path 10444" d="M264.911,64.625,262.279,69.4a2.133,2.133,0,0,1-1.222,1.166,2.1,2.1,0,0,1-2.707-1.26,2.148,2.148,0,0,1-2.35,2.82V60h3.459Zm0,0" transform="translate(-239.957 -56.24)" fill="#f6a96c"/>
  <path id="Path_10445" data-name="Path 10445" d="M157.58,300a6.643,6.643,0,1,0,6.58,6.643A6.641,6.641,0,0,0,157.58,300Zm0,0" transform="translate(-141.537 -281.286)" fill="#64e1dc"/>
  <path id="Path_10446" data-name="Path 10446" d="M262.58,306.643a6.641,6.641,0,0,1-6.58,6.643V300A6.641,6.641,0,0,1,262.58,306.643Zm0,0" transform="translate(-239.957 -281.286)" fill="#00c8c8"/>
  <path id="Path_10447" data-name="Path 10447" d="M2.82,45.041H.94A.94.94,0,0,1,0,44.1V30.94A.94.94,0,0,1,.94,30H2.82a.94.94,0,0,1,.94.94V44.1A.94.94,0,0,1,2.82,45.041Zm0,0" transform="translate(0 -28.12)" fill="#ff637b"/>
  <path id="Path_10448" data-name="Path 10448" d="M220.212,301.458l-5.64,7.583a.925.925,0,0,1-.677.376h-.075a.882.882,0,0,1-.658-.282l-1.88-1.88a.931.931,0,0,1,1.316-1.316l1.128,1.109.094-.131,4.888-6.587a.94.94,0,1,1,1.5,1.128Zm0,0" transform="translate(-197.777 -281.239)" fill="#faecd8"/>
  <path id="Path_10449" data-name="Path 10449" d="M262.392,301.458l-5.64,7.583a.925.925,0,0,1-.677.376H256v-2.5l4.888-6.586a.94.94,0,1,1,1.5,1.128Zm0,0" transform="translate(-239.957 -281.239)" fill="#f4d7af"/>
  <path id="Path_10450" data-name="Path 10450" d="M156.856,1.88V13.16h-7.884a2.171,2.171,0,0,0,.038-1.542c-.075-.188-1.166-3.234-2.632-7.238a.933.933,0,0,0-.884-.62H142.5l-4.324,3.459a1.879,1.879,0,1,1-2.35-2.933l4.85-3.873A1.878,1.878,0,0,1,141.847,0h5.715a1.9,1.9,0,0,1,1.316.545l.79.789a1.85,1.85,0,0,0,1.316.545Zm0,0" transform="translate(-126.65 0)" fill="#fed2a4"/>
  <path id="Path_10451" data-name="Path 10451" d="M270.163,1.88V13.16h-7.884a2.171,2.171,0,0,0,.038-1.542c-.075-.188-1.166-3.234-2.632-7.238a.933.933,0,0,0-.884-.62H256V0h4.869a1.9,1.9,0,0,1,1.316.545l.79.789a1.85,1.85,0,0,0,1.316.545Zm0,0" transform="translate(-239.957)" fill="#ffbd86"/>
  <path id="Path_10452" data-name="Path 10452" d="M454.82,15.041h-1.88a.94.94,0,0,1-.94-.94V.94a.94.94,0,0,1,.94-.94h1.88a.94.94,0,0,1,.94.94V14.1A.94.94,0,0,1,454.82,15.041Zm0,0" transform="translate(-423.674)" fill="#575f64"/>
</svg>
