<svg id="focus" xmlns="http://www.w3.org/2000/svg" width="32" height="32" viewBox="0 0 32 32">
  <path id="Path_10453" data-name="Path 10453" d="M30.9,14.9h-1.7A13.241,13.241,0,0,0,17.1,2.808V1.1a1.1,1.1,0,0,0-2.207,0v1.7A13.241,13.241,0,0,0,2.808,14.9H1.1a1.1,1.1,0,0,0,0,2.207h1.7A13.241,13.241,0,0,0,14.9,29.192v1.7a1.1,1.1,0,0,0,2.207,0v-1.7A13.241,13.241,0,0,0,29.192,17.1h1.7a1.1,1.1,0,0,0,0-2.207Zm-16-9.876v6.014a.894.894,0,0,0,0,.121A4.966,4.966,0,0,0,11.156,14.9H5.021A11.035,11.035,0,0,1,14.9,5.021Zm0,15.945v6.014A11.035,11.035,0,0,1,5.021,17.1h6.135A4.966,4.966,0,0,0,14.9,20.844.894.894,0,0,0,14.9,20.966ZM17.1,26.979V20.966a.894.894,0,0,0,0-.121A4.966,4.966,0,0,0,20.844,17.1h6.135A11.035,11.035,0,0,1,17.1,26.979ZM20.966,14.9h-.121A4.966,4.966,0,0,0,17.1,11.156a.894.894,0,0,0,0-.121V5.021A11.035,11.035,0,0,1,26.979,14.9Z" fill="#e64c3c"/>
  <path id="Path_10454" data-name="Path 10454" d="M188.737,182.286h-5.018v-5.018a.717.717,0,0,0-1.434,0v5.018h-5.018a.717.717,0,0,0,0,1.434h5.018v5.018a.717.717,0,1,0,1.434,0v-5.018h5.018a.717.717,0,1,0,0-1.434Z" transform="translate(-167.002 -167.002)" fill="#fff"/>
</svg>
