<svg xmlns="http://www.w3.org/2000/svg" width="27.049" height="32" viewBox="0 0 27.049 32">
  <g id="medal_1_" data-name="medal (1)" transform="translate(-39.592)">
    <path id="Path_10435" data-name="Path 10435" d="M46.56,221.248l-6.968,13.129,6.328-.585,3.063,5.569,6.968-13.129Z" transform="translate(0 -207.362)" fill="#e95454"/>
    <g id="Group_4743" data-name="Group 4743" transform="translate(45.426 13.886)">
      <path id="Path_10436" data-name="Path 10436" d="M133.93,267.586a.89.89,0,0,0-.418-1.139l-.4-.213a.858.858,0,0,1,.825-1.5l1.133.6a.715.715,0,0,0,.97-.3l.028-.054a.676.676,0,0,0-.26-.954l-3.39-1.8a.893.893,0,0,1-.423-1.14.86.86,0,0,1,1.181-.4l3.144,1.669a.723.723,0,0,0,.975-.3l.018-.046,0-.01a.753.753,0,0,0-.31-1.025l-1.764-.936a.892.892,0,0,1-.42-1.145.863.863,0,0,1,1.181-.4l1.948,1.035a.727.727,0,0,0,.988-.335l0-.01a.046.046,0,0,0,.005-.01.726.726,0,0,0-.276-1.006l-2.1-1.115a.89.89,0,0,1-.418-1.137.86.86,0,0,1,1.181-.4l5.186,2.752-6.968,13.129-1.92-3.491A.816.816,0,0,0,133.93,267.586Z" transform="translate(-131.92 -253.297)" fill="#ed6362"/>
      <path id="Path_10437" data-name="Path 10437" d="M219.191,221.248l6.968,13.129-6.328-.585-3.063,5.569L209.8,226.232Z" transform="translate(-204.944 -221.248)" fill="#ed6362"/>
    </g>
    <path id="Path_10438" data-name="Path 10438" d="M218.407,267.6a.89.89,0,0,1,.418-1.139l.4-.214a.858.858,0,0,0-.825-1.5l-1.133.6a.715.715,0,0,1-.97-.3l-.028-.054a.676.676,0,0,1,.26-.954l3.391-1.8a.892.892,0,0,0,.423-1.14.86.86,0,0,0-1.181-.4l-3.144,1.669a.723.723,0,0,1-.975-.3l-.018-.046,0-.01a.753.753,0,0,1,.31-1.025l1.764-.936a.892.892,0,0,0,.42-1.145.863.863,0,0,0-1.181-.4l-1.95,1.036a.727.727,0,0,1-.988-.335l0-.01a.045.045,0,0,1,0-.01.726.726,0,0,1,.276-1.006l2.1-1.115a.89.89,0,0,0,.418-1.137.86.86,0,0,0-1.181-.4l-5.186,2.752,6.968,13.129,1.92-3.491A.831.831,0,0,1,218.407,267.6Z" transform="translate(-159.56 -239.425)" fill="#e95454"/>
    <ellipse id="Ellipse_489" data-name="Ellipse 489" cx="11.682" cy="11.643" rx="11.682" ry="11.643" transform="translate(41.435 0)" fill="#ffcc5b"/>
    <path id="Path_10439" data-name="Path 10439" d="M82.876,23.449H75.5A1.049,1.049,0,0,1,74.454,22.4l.008-.072v-.016a1.091,1.091,0,0,1,1.092-1.1h5.114a1.293,1.293,0,0,0,1.316-1.18,1.25,1.25,0,0,0-1.244-1.308H75.323a1.054,1.054,0,0,1-1.037-1.1V17.6a1.054,1.054,0,0,1,1.037-1.1h5.668A1.291,1.291,0,0,0,82.3,15.324a1.246,1.246,0,0,0-1.244-1.308H76.9a11.642,11.642,0,0,0,0,21.535h5.27a1.291,1.291,0,0,0,1.308-1.172,1.245,1.245,0,0,0-1.244-1.307h-6A1.241,1.241,0,0,1,75,31.764a1.288,1.288,0,0,1,1.309-1.174h2.324a1.242,1.242,0,0,0-.036-2.484H75.078a1.036,1.036,0,0,1-1.037-1.044v-.088a.981.981,0,0,1,.981-1.044H82.8a1.293,1.293,0,0,0,1.316-1.172A1.246,1.246,0,0,0,82.876,23.449Z" transform="translate(-28.219 -13.142)" fill="#fdbc4b"/>
    <path id="Path_10440" data-name="Path 10440" d="M130.934,70.061a8.311,8.311,0,1,1,8.35-8.31A8.34,8.34,0,0,1,130.934,70.061Z" transform="translate(-77.817 -50.108)" fill="#ffdb70"/>
    <path id="Path_10441" data-name="Path 10441" d="M237.383,62.111a8.315,8.315,0,0,0-7.834-8.287h-.774a.985.985,0,0,0-1,.894.951.951,0,0,0,.949,1H233.3a.946.946,0,0,1,.945,1,.983.983,0,0,1-1,.9h-1.773A.947.947,0,0,0,231.5,59.5h2.688a.79.79,0,0,1,.79.8v.066a.748.748,0,0,1-.748.8h-5.935a.987.987,0,0,0-1,.894.951.951,0,0,0,.949,1h5.627a.8.8,0,0,1,.8.8l-.006.055v.012a.832.832,0,0,1-.833.839h-3.9a.987.987,0,0,0-1,.9.954.954,0,0,0,.949,1H234a.8.8,0,0,1,.79.839v.024a.8.8,0,0,1-.79.839h-4.323a.985.985,0,0,0-1,.894.95.95,0,0,0,.949,1h1.14A8.325,8.325,0,0,0,237.383,62.111Z" transform="translate(-175.94 -50.468)" fill="#fff" opacity="0.2"/>
    <path id="Path_10442" data-name="Path 10442" d="M166.342,93.827H162.3l-1.25-3.845a.537.537,0,0,0-1.021,0l-1.249,3.845h-4.042a.536.536,0,0,0-.315.971l3.27,2.376-1.249,3.845a.537.537,0,0,0,.826.6l3.27-2.376,3.27,2.376a.537.537,0,0,0,.826-.6l-1.249-3.845,3.27-2.376A.537.537,0,0,0,166.342,93.827Z" transform="translate(-107.424 -83.999)" fill="#ec9922"/>
  </g>
</svg>
