<svg id="圖層_1" data-name="圖層 1" xmlns="http://www.w3.org/2000/svg" viewBox="0 0 490.2 123.47"><defs><style>.cls-1{fill:#fff;}</style></defs><path id="Path_86" data-name="Path 86" class="cls-1" d="M429.92,71a6.68,6.68,0,0,0,0-4.1l-10.6-24.86a5.64,5.64,0,0,0-8,0,5.4,5.4,0,0,0-.87,1.1L395.76,69.3l-9.07-31.78a6.26,6.26,0,0,0-2.6-3.24,4.94,4.94,0,0,0-3.89-.43A6.24,6.24,0,0,0,377,36.44a5.36,5.36,0,0,0-.43,4.11l12.75,44.09a5.3,5.3,0,0,0,4.54,3.89h.65A5,5,0,0,0,399,85.72l15.77-28.1L420.62,71a5.1,5.1,0,0,0,2.81,2.81,6.56,6.56,0,0,0,4.11,0A6.15,6.15,0,0,0,429.92,71Z"/><path id="Path_87" data-name="Path 87" class="cls-1" d="M432.51,78.81h0A6.74,6.74,0,0,0,428,80.32a6.38,6.38,0,0,0-2.16,4.32,6.74,6.74,0,0,0,1.51,4.54,6.42,6.42,0,0,0,4.32,2.16h.44a6.82,6.82,0,0,0,4.1-1.51,6.48,6.48,0,0,0,2.17-4.32A6.8,6.8,0,0,0,436.83,81,5,5,0,0,0,432.51,78.81Z"/><path id="Path_88" data-name="Path 88" class="cls-1" d="M85.59,45.3H49.71c-5.62,4.76-2.16,11,2.59,11H79.1C74.35,75.56,49.49,86.37,30.25,68L30,67.78C11,39.25,41.93,8.34,70.24,27.36A5.6,5.6,0,0,0,75.64,31c3.25,0,6.06-3,5.62-7.57-13.61-15.13-37.17-18.16-56.63-3A9,9,0,0,0,22.26,23C0,54.6,22.26,88.53,52.3,88.53A38.86,38.86,0,0,0,91.21,51.14,5.73,5.73,0,0,0,89.69,47,5.9,5.9,0,0,0,85.59,45.3Z"/><path id="Path_89" data-name="Path 89" class="cls-1" d="M143.3,41.84c-28.53-22-61.17,10.6-39.34,39.34C132.71,103,165.35,70.38,143.3,41.84Zm-7.78,7.79C148.7,66.7,129.25,86.37,112,73.19,98.77,56.11,118.44,36.44,135.52,49.63Z"/><path id="Path_90" data-name="Path 90" class="cls-1" d="M260.67,41.84c-28.53-22-61.17,10.6-39.34,39.34C250.08,103,282.72,70.38,260.67,41.84Zm-8,7.79c13.19,17.07-6.27,36.74-23.56,23.56C216.14,56.11,235.6,36.44,252.67,49.63Z"/><path id="Path_91" data-name="Path 91" class="cls-1" d="M366.8,41.84c-28.53-22-61.17,10.6-39.34,39.34C356.21,103,388.85,70.38,366.8,41.84Zm-8,7.79C372,66.7,352.53,86.37,335.24,73.19,322.27,56.11,341.73,36.44,358.8,49.63Z"/><path id="Path_92" data-name="Path 92" class="cls-1" d="M197.77,39.25v4.11a26.71,26.71,0,0,0-15.35-5.19,25.72,25.72,0,0,0,0,51.44h0a24.44,24.44,0,0,0,15.35-5.18v4.32a68.21,68.21,0,0,1-.43,8.21c-1.73,8.22-16.43,13-25.94,2.38a5.72,5.72,0,0,0-2.59-6.48,4.9,4.9,0,0,0-3.9-.22,5.16,5.16,0,0,0-3,2.59,4.88,4.88,0,0,0-.22,3.89,24.22,24.22,0,0,0,23.13,16.65c11.24,0,21-7.14,22.91-16.65A61.59,61.59,0,0,0,208.36,89V41.41C208.14,37.09,202.31,33.85,197.77,39.25Zm-4.32,13.83c12.32,16-6.06,34.37-22,22C159.08,58.92,177.45,40.76,193.45,53.08Z"/><path id="Path_93" data-name="Path 93" class="cls-1" d="M296.12,36.22a20.83,20.83,0,0,0-13.4,3.9c-1.08-4.11-6.7-6.06-10.59-.87V84.43c4.75,5.4,10.8,2.16,10.8-2.6V57c.44-1.29,4.11-9.72,12.54-9.72h.43c8.43.21,9.08,4.1,9.3,9.94s0,22.26,0,25.72v.22A5.19,5.19,0,0,0,306.71,87a5.06,5.06,0,0,0,3.67,1.51V88.1h0v.43a5.35,5.35,0,0,0,5.41-5.3v-.1c0-1.95.21-19.89,0-26.16C315.57,43.57,308.87,36.66,296.12,36.22Z"/><path id="Path_94" data-name="Path 94" class="cls-1" d="M473.58,31.69a10.75,10.75,0,0,0-12.76-.44,12.54,12.54,0,0,0-3.89,5L437.48,68.65c0,.21-.22.21-.22.43l-.43.65h0a7.54,7.54,0,0,0-.43,2.16,6,6,0,0,0,9.73,4.54h0l.43-.43.43-.44,26.16-28.1a9.16,9.16,0,0,0,2.37-2.59l.22-.43h0A10.51,10.51,0,0,0,473.58,31.69Z"/></svg>