<svg xmlns="http://www.w3.org/2000/svg" width="278.199" height="63.475" viewBox="0 0 278.199 63.475">
  <g id="Group_79" data-name="Group 79" transform="translate(-79 -68)">
    <path id="Path_82" data-name="Path 82" d="M24.5,32.8,4.6,20.1V43.8Z" transform="translate(78.9 67.975)" fill="#43a9da"/>
    <g id="Group_78" data-name="Group 78">
      <g id="Group_77" data-name="Group 77">
        <g id="Group_76" data-name="Group 76">
          <g id="Group_48" data-name="Group 48" transform="translate(78.9 67.975)">
            <path id="Path_83" data-name="Path 83" d="M6.9,16.7,26.5,29.2V5.4Z" fill="#ffff71"/>
          </g>
          <g id="Group_49" data-name="Group 49" transform="translate(78.9 67.975)">
            <path id="Path_84" data-name="Path 84" d="M33.6,35H29.7a4.373,4.373,0,0,0-1.8.6L7.1,47,28.5,59.4,52.4,45.6V35Z" fill="#ff7f00"/>
          </g>
          <path id="Path_85" data-name="Path 85" d="M57.1,30.4h-26V6.3h.1L53.2,19a3.194,3.194,0,0,0,1.9.3c1.5-.4,2.4-2.1,1.6-4.1L32.2,1a7.319,7.319,0,0,0-7.3,0L3.7,13.2a6.48,6.48,0,0,0-2,1.7,1.756,1.756,0,0,0-.4.5.758.758,0,0,0-.2.4,6.863,6.863,0,0,0-1,3.7V44a6.863,6.863,0,0,0,1,3.7c0,.1.1.2.1.3a2.651,2.651,0,0,0,.5.6,7.875,7.875,0,0,0,2,1.7L24.9,62.5a7.873,7.873,0,0,0,3.7,1,6.863,6.863,0,0,0,3.7-1L57.2,48.1V30.4ZM23.5,32.8h0L5.2,42.9H5.1V21h0L23.5,32.8ZM25.9,6.3c.1,0,.1.1,0,0v22h-.1L8,16.8v-.2L25.9,6.3Zm26,29.2v9.8L28.5,58.8,8.2,47.1v-.2L28.1,36h0a3.739,3.739,0,0,1,1.5-.5H51.9Z" transform="translate(78.9 67.975)" fill="#282828"/>
          <path id="Path_86" data-name="Path 86" d="M256.5,42.8a3.083,3.083,0,0,0,0-1.9l-4.9-11.5a2.616,2.616,0,0,0-4.1.5L240.7,42l-4.2-14.7a2.891,2.891,0,0,0-1.2-1.5,2.292,2.292,0,0,0-1.8-.2,2.891,2.891,0,0,0-1.5,1.2,2.491,2.491,0,0,0-.2,1.9l5.9,20.4a2.452,2.452,0,0,0,2.1,1.8h.3a2.332,2.332,0,0,0,2.1-1.3l7.3-13,2.7,6.2a2.367,2.367,0,0,0,1.3,1.3,3.083,3.083,0,0,0,1.9,0A2.85,2.85,0,0,0,256.5,42.8Z" transform="translate(78.9 67.975)" fill="#282828"/>
          <path id="Path_87" data-name="Path 87" d="M257.7,46.4h0a3.139,3.139,0,0,0-2.1.7,2.975,2.975,0,0,0-1,2,3.139,3.139,0,0,0,.7,2.1,2.975,2.975,0,0,0,2,1h.2a3.157,3.157,0,0,0,1.9-.7,2.975,2.975,0,0,0,1-2,3.139,3.139,0,0,0-.7-2.1A2.334,2.334,0,0,0,257.7,46.4Z" transform="translate(78.9 67.975)" fill="#282828"/>
          <path id="Path_88" data-name="Path 88" d="M97.2,30.9H80.6c-2.6,2.2-1,5.1,1.2,5.1H94.2C92,44.9,80.5,49.9,71.6,41.4l-.1-.1C62.7,28.1,77,13.8,90.1,22.6a2.582,2.582,0,0,0,2.5,1.7c1.5,0,2.8-1.4,2.6-3.5-6.3-7-17.2-8.4-26.2-1.4a4.263,4.263,0,0,0-1.1,1.2c-10.3,14.6,0,30.3,13.9,30.3a17.981,17.981,0,0,0,18-17.3,2.64,2.64,0,0,0-.7-1.9A2.732,2.732,0,0,0,97.2,30.9Z" transform="translate(78.9 67.975)" fill="#282828"/>
          <path id="Path_89" data-name="Path 89" d="M123.9,29.3c-13.2-10.2-28.3,4.9-18.2,18.2C119,57.6,134.1,42.5,123.9,29.3Zm-3.6,3.6c6.1,7.9-2.9,17-10.9,10.9C103.3,35.9,112.4,26.8,120.3,32.9Z" transform="translate(78.9 67.975)" fill="#282828"/>
          <path id="Path_90" data-name="Path 90" d="M178.2,29.3C165,19.1,149.9,34.2,160,47.5,173.3,57.6,188.4,42.5,178.2,29.3Zm-3.7,3.6c6.1,7.9-2.9,17-10.9,10.9C157.6,35.9,166.6,26.8,174.5,32.9Z" transform="translate(78.9 67.975)" fill="#282828"/>
          <path id="Path_91" data-name="Path 91" d="M227.3,29.3c-13.2-10.2-28.3,4.9-18.2,18.2C222.4,57.6,237.5,42.5,227.3,29.3Zm-3.7,3.6c6.1,7.9-2.9,17-10.9,10.9C206.7,35.9,215.7,26.8,223.6,32.9Z" transform="translate(78.9 67.975)" fill="#282828"/>
          <path id="Path_92" data-name="Path 92" d="M149.1,28.1V30a12.376,12.376,0,0,0-7.1-2.4,11.9,11.9,0,0,0,0,23.8,11.283,11.283,0,0,0,7.1-2.4v2a31.812,31.812,0,0,1-.2,3.8c-.8,3.8-7.6,6-12,1.1a2.644,2.644,0,0,0-1.2-3,2.263,2.263,0,0,0-1.8-.1,2.365,2.365,0,0,0-1.4,1.2,2.263,2.263,0,0,0-.1,1.8,11.2,11.2,0,0,0,10.7,7.7c5.2,0,9.7-3.3,10.6-7.7a28.686,28.686,0,0,0,.3-4.7v-22C153.9,27.1,151.2,25.6,149.1,28.1Zm-2,6.4c5.7,7.4-2.8,15.9-10.2,10.2C131.2,37.2,139.7,28.8,147.1,34.5Z" transform="translate(78.9 67.975)" fill="#282828"/>
          <path id="Path_93" data-name="Path 93" d="M194.6,26.7a9.64,9.64,0,0,0-6.2,1.8c-.5-1.9-3.1-2.8-4.9-.4V49c2.2,2.5,5,1,5-1.2V36.3c.2-.6,1.9-4.5,5.8-4.5h.2c3.9.1,4.2,1.9,4.3,4.6s0,10.3,0,11.9v.1a2.41,2.41,0,0,0,.7,1.8,2.342,2.342,0,0,0,1.7.7v-.2h0v.2a2.476,2.476,0,0,0,2.5-2.5c0-.9.1-9.2,0-12.1C203.6,30.1,200.5,26.9,194.6,26.7Z" transform="translate(78.9 67.975)" fill="#282828"/>
          <path id="Path_94" data-name="Path 94" d="M276.7,24.6a4.965,4.965,0,0,0-5.9-.2,5.782,5.782,0,0,0-1.8,2.3l-9,15c0,.1-.1.1-.1.2l-.2.3h0a3.553,3.553,0,0,0-.2,1,2.777,2.777,0,0,0,4.5,2.1h0l.2-.2.2-.2,12.1-13a4.263,4.263,0,0,0,1.1-1.2l.1-.2h0A4.864,4.864,0,0,0,276.7,24.6Z" transform="translate(78.9 67.975)" fill="#282828"/>
        </g>
      </g>
    </g>
  </g>
</svg>
