<svg id="medal" xmlns="http://www.w3.org/2000/svg" width="30.549" height="41.129" viewBox="0 0 30.549 41.129">
  <g id="Group_4622" data-name="Group 4622" transform="translate(0 0)">
    <path id="Path_10082" data-name="Path 10082" d="M93.367,18.566l-2.009-2.749a.518.518,0,0,1-.008-.6l1.967-2.775a.515.515,0,0,0-.177-.748l-3-1.606a.5.5,0,0,1-.261-.538L90.441,6.2a.512.512,0,0,0-.488-.6l-3.4-.143a.513.513,0,0,1-.471-.37l-.942-3.279a.512.512,0,0,0-.7-.328L81.318,2.826A.532.532,0,0,1,80.73,2.7L78.46.17a.518.518,0,0,0-.774.008L75.45,2.742a.5.5,0,0,1-.58.135L71.725,1.582a.514.514,0,0,0-.689.336l-.9,3.279a.521.521,0,0,1-.462.378l-3.4.193a.518.518,0,0,0-.479.605l.614,3.346a.509.509,0,0,1-.252.538l-2.976,1.648a.516.516,0,0,0-.168.748L65.024,15.4a.518.518,0,0,1,.008.6l-1.967,2.775a.515.515,0,0,0,.177.748l3,1.606a.5.5,0,0,1,.261.538l-.563,3.355a.512.512,0,0,0,.488.6l3.4.143a.513.513,0,0,1,.471.37l.95,3.271a.512.512,0,0,0,.7.328l3.128-1.345a.532.532,0,0,1,.589.126l2.27,2.531a.518.518,0,0,0,.773-.008L80.94,28.47a.505.505,0,0,1,.58-.135l3.144,1.295a.514.514,0,0,0,.689-.336l.9-3.279a.521.521,0,0,1,.462-.378l3.4-.193a.518.518,0,0,0,.479-.605l-.614-3.346a.509.509,0,0,1,.252-.538l2.976-1.648A.5.5,0,0,0,93.367,18.566ZM78.2,24.846a9.232,9.232,0,1,1,9.232-9.232A9.247,9.247,0,0,1,78.2,24.846Z" transform="translate(-62.919 0)" fill="#fff"/>
    <path id="Path_10083" data-name="Path 10083" d="M270.83,366.513a2.662,2.662,0,0,1-1.9.79,2.9,2.9,0,0,1-.765-.109L266,366.538l-1.673,1.53c-.059.05-.109.1-.168.143l2.69,8.34a.38.38,0,0,0,.664.118l1.959-2.514a.377.377,0,0,1,.4-.135l3.052.891a.382.382,0,0,0,.471-.479Z" transform="translate(-247.235 -335.698)" fill="#fff"/>
    <path id="Path_10084" data-name="Path 10084" d="M122.551,366.538l-2.169.656a2.632,2.632,0,0,1-.765.109,2.677,2.677,0,0,1-1.9-.79l-2.564,7.928a.379.379,0,0,0,.471.479l3.052-.891a.372.372,0,0,1,.4.135l1.959,2.514a.38.38,0,0,0,.664-.118l2.69-8.34a1.366,1.366,0,0,1-.168-.143Z" transform="translate(-110.744 -335.698)" fill="#fff"/>
    <path id="Path_10085" data-name="Path 10085" d="M183.2,115.548l-3.481-.252-1.312-3.229a.731.731,0,0,0-1.354,0L175.74,115.3l-3.481.252a.731.731,0,0,0-.42,1.286l2.665,2.253-.832,3.388a.73.73,0,0,0,1.093.8l2.96-1.841,2.96,1.841a.73.73,0,0,0,1.093-.8l-.832-3.388,2.665-2.253A.728.728,0,0,0,183.2,115.548Z" transform="translate(-162.445 -102.229)" fill="#fff"/>
  </g>
</svg>
