<svg id="Group_4726" data-name="Group 4726" xmlns="http://www.w3.org/2000/svg" width="42.075" height="24.83" viewBox="0 0 42.075 24.83">
  <g id="Group_4618" data-name="Group 4618" transform="translate(0 6.594)">
    <path id="Path_10075" data-name="Path 10075" d="M-714.7,366.81h-31.6a2.153,2.153,0,0,0-2.153,2.153v13.93a2.153,2.153,0,0,0,2.153,2.153h31.6a2.153,2.153,0,0,0,2.153-2.153v-13.93A2.153,2.153,0,0,0-714.7,366.81Zm-13.191,13.047a3.4,3.4,0,0,1-2.154,1.075v1.322h-1.025v-1.287a3.273,3.273,0,0,1-1.987-.912,3.754,3.754,0,0,1-.976-2.157l1.846-.2a2.347,2.347,0,0,0,.424.976,1.934,1.934,0,0,0,.693.594v-2.963a3.9,3.9,0,0,1-2.033-1.2,3.005,3.005,0,0,1-.647-1.948,2.756,2.756,0,0,1,.732-1.948,2.95,2.95,0,0,1,1.948-.909v-.7h1.025v.7a3.036,3.036,0,0,1,1.789.767,2.961,2.961,0,0,1,.849,1.694l-1.789.234a1.441,1.441,0,0,0-.849-1.132v2.765a4.566,4.566,0,0,1,2.312,1.192,2.819,2.819,0,0,1,.615,1.878A3.142,3.142,0,0,1-727.887,379.857Z" transform="translate(748.451 -366.81)" fill="#fff"/>
    <path id="Path_10076" data-name="Path 10076" d="M-552.6,471.07v2.758a1.442,1.442,0,0,0,.863-.492,1.384,1.384,0,0,0,.332-.923,1.254,1.254,0,0,0-.279-.817A1.787,1.787,0,0,0-552.6,471.07Z" transform="translate(571.008 -461.27)" fill="#fff"/>
    <path id="Path_10077" data-name="Path 10077" d="M-572.964,420.843a1.244,1.244,0,0,0-.247.75,1.186,1.186,0,0,0,.226.7,1.568,1.568,0,0,0,.686.52v-2.447A1.328,1.328,0,0,0-572.964,420.843Z" transform="translate(589.685 -415.328)" fill="#fff"/>
  </g>
  <path id="Path_10078" data-name="Path 10078" d="M-645.292,298.057v-.137a1.088,1.088,0,0,0-1.088-1.088h-.217a2.13,2.13,0,0,0-.669-.109l-31.452-.064a2.127,2.127,0,0,0-.847.173h-.171a1.088,1.088,0,0,0-1.088,1.088v.5a2.148,2.148,0,0,0-.033.365v.545h.034v2.2h30.684a1.088,1.088,0,0,1,1.088,1.088v12.542h2.672a1.088,1.088,0,0,0,1.088-1.088v-.336a2.13,2.13,0,0,0,.127-.72l.029-14.156A2.127,2.127,0,0,0-645.292,298.057Z" transform="translate(687.212 -296.659)" fill="#fff"/>
</svg>
