<svg id="buy" xmlns="http://www.w3.org/2000/svg" width="36.281" height="35.543" viewBox="0 0 36.281 35.543">
  <g id="Group_4621" data-name="Group 4621" transform="translate(0 0)">
    <g id="Group_4620" data-name="Group 4620" transform="translate(0 0)">
      <ellipse id="Ellipse_416" data-name="Ellipse 416" cx="4.397" cy="4.397" rx="4.397" ry="4.397" transform="translate(8.453 26.727)" fill="#fff"/>
      <path id="Path_10079" data-name="Path 10079" d="M269.48,324.2h0a4.44,4.44,0,1,0,3.984,3.984A4.44,4.44,0,0,0,269.48,324.2Z" transform="translate(-242.541 -297.514)" fill="#fff"/>
      <path id="Path_10080" data-name="Path 10080" d="M35.991,14.376a1.153,1.153,0,0,0-.982-.512H30.142v-.085a9.35,9.35,0,1,0-18.7,0h0v.085H7.813L6.575,8.228a1.281,1.281,0,0,0-1.238-.982H0V9.808H4.312l3.97,18.23a1.238,1.238,0,0,0,1.238,1.025H31.849a1.281,1.281,0,0,0,1.238-.982l3.159-12.637A1.2,1.2,0,0,0,35.991,14.376Zm-15.2,6.191a6.788,6.788,0,1,1,6.788-6.788A6.788,6.788,0,0,1,20.792,20.567Z" transform="translate(0 -4.428)" fill="#fff"/>
      <path id="Path_10081" data-name="Path 10081" d="M191.064,71.639l-2.348-2.391-1.836,1.793,3.245,3.287a1.281,1.281,0,0,0,.9.384,1.2,1.2,0,0,0,.9-.342l5.379-5.081-1.75-1.879Z" transform="translate(-171.297 -62.16)" fill="#fff"/>
    </g>
  </g>
</svg>
