<svg id="rocket" xmlns="http://www.w3.org/2000/svg" width="32.032" height="32.032" viewBox="0 0 32.032 32.032">
  <path id="Path_10086" data-name="Path 10086" d="M73.249,284.67a.939.939,0,0,0,.175,1.085l.229.229c.663-.786,1.436-1.638,2.373-2.575.066-.066.134-.1.2-.159l-1.476-1.477C73.892,283.326,73.392,284.386,73.249,284.67Zm0,0" transform="translate(-68.573 -264.145)" fill="#fff"/>
  <path id="Path_10087" data-name="Path 10087" d="M165.462,389.763c-.939.939-1.79,1.714-2.571,2.377l.311.311a.938.938,0,0,0,1.093.171c.486-.25,1.251-.61,2.873-1.514l-1.546-1.546C165.56,389.629,165.528,389.7,165.462,389.763Zm0,0" transform="translate(-152.7 -365.19)" fill="#fff"/>
  <path id="Path_10088" data-name="Path 10088" d="M68.122,311.591c-.678-.678-2.585-.07-3.481.826a24.956,24.956,0,0,0-4.959,6.377.938.938,0,0,0,1.255,1.253,25.138,25.138,0,0,0,6.358-4.975c.985-.986,1.471-2.835.827-3.479Zm0,0" transform="translate(-55.86 -291.826)" fill="#fff"/>
  <path id="Path_10089" data-name="Path 10089" d="M2.93,166.031.276,168.686a.939.939,0,0,0,.906,1.57,7.712,7.712,0,0,1,3.547-.329A50.357,50.357,0,0,1,8.614,164C7.818,163.49,5.187,163.774,2.93,166.031Zm0,0" transform="translate(-0.001 -153.537)" fill="#fff"/>
  <path id="Path_10090" data-name="Path 10090" d="M246.156,384.869a.937.937,0,0,0,1.085-.174l2.655-2.654c2.055-2.056,2.417-4.708,1.95-5.549a53.568,53.568,0,0,1-5.931,3.855,11.5,11.5,0,0,1-.265,3.547A.936.936,0,0,0,246.156,384.869Zm0,0" transform="translate(-230.272 -352.938)" fill="#fff"/>
  <path id="Path_10091" data-name="Path 10091" d="M285.467,138.132a2.815,2.815,0,1,0,3.982,0A2.819,2.819,0,0,0,285.467,138.132Zm0,0" transform="translate(-266.835 -128.718)" fill="#fff"/>
  <path id="Path_10092" data-name="Path 10092" d="M395.49.917a.937.937,0,0,0-.866-.866,18.552,18.552,0,0,0-6.851.8,7.878,7.878,0,0,0,2.334,4.584,7.854,7.854,0,0,0,4.674,2.33A19.407,19.407,0,0,0,395.49.917Zm0,0" transform="translate(-363.513 -0.001)" fill="#fff"/>
  <path id="Path_10093" data-name="Path 10093" d="M132.454,29.254A9.859,9.859,0,0,1,129.633,24C124,26.307,118.6,31.354,114.34,38.444l2.118,2.118c1.447-.588,3.2-.743,4.318.371s.958,2.872.37,4.317l2.188,2.188c5.455-3.288,11.806-8.467,14.507-15.359A9.812,9.812,0,0,1,132.454,29.254Zm-1.328,7.963a4.692,4.692,0,1,1,0-6.636A4.7,4.7,0,0,1,131.126,37.217Zm0,0" transform="translate(-107.186 -22.495)" fill="#fff"/>
</svg>
